<svg width="25" height="24" viewBox="0 0 25 24" fill="none" xmlns="http://www.w3.org/2000/svg">
<path fill-rule="evenodd" clip-rule="evenodd" d="M17.1875 0H7.8125L3.90625 4.88281H0V23.2422H25V4.88281H21.0938L17.1875 0ZM2.14844 8.20312C1.50123 8.20312 0.976562 7.67846 0.976562 7.03125C0.976562 6.38404 1.50123 5.85938 2.14844 5.85938C2.79564 5.85938 3.32031 6.38404 3.32031 7.03125C3.32031 7.67846 2.79564 8.20312 2.14844 8.20312ZM6.05469 14.0625C6.05469 17.6221 8.94035 20.5078 12.5 20.5078C16.0596 20.5078 18.9453 17.6221 18.9453 14.0625C18.9453 10.5029 16.0596 7.61719 12.5 7.61719C8.94035 7.61719 6.05469 10.5029 6.05469 14.0625ZM12.5 17.9688C10.3426 17.9688 8.59375 16.2199 8.59375 14.0625C8.59375 11.9051 10.3426 10.1562 12.5 10.1562C14.6574 10.1562 16.4062 11.9051 16.4062 14.0625C16.4062 16.2199 14.6574 17.9688 12.5 17.9688Z" fill="#222222"/>
</svg>
