<svg width="25" height="25" viewBox="0 0 25 25" fill="none" xmlns="http://www.w3.org/2000/svg">
<path fill-rule="evenodd" clip-rule="evenodd" d="M6.20827 5.26394C7.70785 3.95895 9.61695 3.11245 11.7173 2.94274V0C8.79461 0.18023 6.14318 1.36283 4.1025 3.20823L6.20827 5.26394ZM13.2828 2.94274V0C16.0293 0.169371 18.5363 1.22396 20.5221 2.88196L18.4634 4.99074C17.0178 3.84119 15.2327 3.10029 13.2828 2.94274ZM19.6058 6.06161L21.6592 3.95819C23.5805 6.01742 24.8155 8.72522 25 11.7172H22.0572C21.8819 9.54786 20.9847 7.58244 19.6058 6.06161ZM21.9911 20.6716C23.7222 18.6629 24.8264 16.0987 25 13.2827H22.0572C21.894 15.3018 21.1056 17.1442 19.8853 18.6159L21.9911 20.6716ZM20.8974 21.7919L18.7917 19.7362C17.2921 21.041 15.383 21.8876 13.2828 22.0572V25C16.2054 24.8198 18.8568 23.6372 20.8974 21.7919ZM11.7173 25V22.0572C9.62908 21.8885 7.72992 21.0508 6.23429 19.7587L4.1809 21.8621C6.21087 23.6672 8.83188 24.8221 11.7173 25ZM3.07778 20.751L5.13642 18.6422C3.9039 17.1661 3.10684 15.3138 2.94276 13.2827H0C0.175947 16.1359 1.30718 18.7306 3.07778 20.751ZM0 11.7172H2.94276C3.10588 9.69818 3.89449 7.8558 5.1146 6.38406L3.00884 4.32838C1.27784 6.33708 0.173652 8.90128 0 11.7172ZM17.8892 8.75773L12.316 15.0499L12.3096 15.0412C12.262 15.085 12.2116 15.1267 12.1584 15.1659C11.3752 15.7427 10.2727 15.5755 9.69587 14.7923C9.11904 14.0091 9.28631 12.9066 10.0695 12.3298C10.1228 12.2905 10.1775 12.2548 10.2334 12.2224L10.2271 12.2137L17.8892 8.75773Z" fill="#222222"/>
</svg>
